<svg xmlns="http://www.w3.org/2000/svg" viewBox="0 0 24 24"><path d="M12 5C9.9 5 8.3 6.6 8.3 8.6s1.7 3.6 3.7 3.6 3.7-1.6 3.7-3.6S14.1 5 12 5zm0 5.3c-1 0-1.7-.7-1.7-1.6S11 7 12 7s1.7.7 1.7 1.6-.7 1.7-1.7 1.7z"/><path d="M12 2C6.5 2 2 6.5 2 12c0 2.5 1 5 2.7 6.8 1.9 2 4.5 3.2 7.3 3.2s5.4-1.1 7.3-3.2C21 17 22 14.5 22 12c0-5.5-4.5-10-10-10zm-.8 18h-.3c-.2 0-.3 0-.5-.1-.1 0-.2 0-.3-.1-.2 0-.3-.1-.5-.1-.1 0-.2-.1-.3-.1-.1 0-.3-.1-.4-.2-.1 0-.2-.1-.3-.1-.1-.1-.3-.1-.4-.2-.1-.1-.2-.2-.3-.2-.1-.1-.2-.2-.4-.2-.1-.1-.2-.1-.3-.2l-.3-.3c-.1-.1-.2-.1-.3-.2l-.1-.1v-.1C7 16.1 8.4 15 10 15h4c1.6 0 3 1.1 3.5 2.8l-.1.1c-.1.1-.2.2-.3.2l-.3.3c-.1.1-.2.1-.3.2-.1.1-.2.2-.4.2-.1.1-.2.1-.3.2-.1.1-.3.1-.4.2-.1 0-.2.1-.3.1-.1.1-.3.1-.4.2-.1 0-.2.1-.3.1-.2 0-.3.1-.5.1-.1 0-.2.1-.3.1-.2 0-.3.1-.5.1H12c-.3 0-.5.1-.8.1zm7.7-3.9C17.9 14.2 16 13 14 13h-4c-2.1 0-4 1.2-4.9 3.1C4.4 14.8 4 13.5 4 12c0-4.4 3.6-8 8-8s8 3.6 8 8c0 1.5-.4 2.8-1.1 4.1z"/></svg>